<?xml version="1.0"?>
<svg width="1280" height="325" xmlns="http://www.w3.org/2000/svg" xmlns:svg="http://www.w3.org/2000/svg" preserveAspectRatio="xMidYMid meet">
 <metadata>Created by potrace 1.15, written by Peter Selinger 2001-2017</metadata>

 <g class="layer">
  <title>Layer 1</title>
  <g fill="#000000" id="svg_1" transform="translate(0 325) scale(0.1 -0.1)">
   <path d="m10460,3060c-666,-32 -1566,-215 -2555,-521c-516,-160 -1874,-623 -1862,-635c2,-3 141,43 309,100c1533,524 2563,781 3438,857c203,18 635,15 815,-5c439,-50 790,-171 1015,-351c387,-310 488,-794 258,-1235c-72,-138 -121,-202 -253,-336c-250,-253 -588,-421 -1030,-513c-641,-133 -1395,-76 -2250,170c-642,185 -1296,454 -2247,926c-170,84 -308,151 -308,148c0,-3 279,-150 680,-358c319,-165 843,-412 1155,-544c1266,-536 2337,-744 3233,-628c648,85 1190,347 1516,735c82,98 126,155 126,166c0,4 11,21 23,38c25,33 107,198 107,215c0,6 6,25 14,43c43,102 70,276 69,443c-1,233 -89,464 -253,670c-245,305 -695,518 -1248,590c-127,16 -434,35 -537,33c-33,-1 -130,-4 -215,-8z" fill="#f2c0a2" id="svg_2"/>
   <path d="m1943,2975c-529,-67 -991,-291 -1354,-655c-229,-231 -403,-529 -465,-800c-24,-101 -24,-283 -1,-370c75,-285 306,-465 691,-539c567,-110 1437,26 2716,423c450,139 1768,591 1757,602c-2,2 -183,-57 -403,-132c-1407,-477 -2276,-698 -2962,-755c-172,-14 -531,-6 -647,15c-412,73 -643,239 -706,506c-17,75 -15,230 4,315c53,230 192,464 399,673c301,303 679,484 1168,559c160,24 543,24 725,-1c292,-39 633,-126 968,-245c338,-120 880,-361 1390,-618c211,-107 257,-129 242,-115c-16,15 -557,294 -865,446c-800,396 -1357,593 -1920,677c-179,27 -574,35 -737,14z" fill="#f2c0a2" id="svg_3"/>
   <path d="m5912,1863c-24,-8 -41,-17 -39,-19c4,-5 97,26 97,32c0,6 -11,4 -58,-13z" fill="#f2c0a2" id="svg_4"/>
  </g>
 </g>
</svg>